<svg viewBox="0 0 24 24" fill="#1a1a1a">
  <path d="M12 2C6.48 2 2 6.26 2 11.5c0 3.77 2.39 7 5.77 8.32-.08-.71-.15-1.8.03-2.58.16-.7 1.04-4.45 1.04-4.45s-.26-.52-.26-1.29c0-1.21.7-2.11 1.57-2.11.74 0 1.1.55 1.1 1.21 0 .74-.47 1.85-.71 2.88-.2.85.43 1.54 1.28 1.54 1.54 0 2.72-1.62 2.72-3.96 0-2.07-1.49-3.52-3.62-3.52-2.47 0-3.92 1.85-3.92 3.76 0 .74.29 1.54.65 1.97.07.08.08.15.06.24-.07.26-.23.85-.26.97-.04.16-.13.2-.3.12-1.12-.52-1.82-2.16-1.82-3.48 0-2.83 2.06-5.43 5.94-5.43 3.12 0 5.55 2.22 5.55 5.19 0 3.1-1.95 5.6-4.66 5.6-.91 0-1.77-.47-2.06-1.03l-.56 2.14c-.2.76-.74 1.71-1.1 2.29.83.26 1.71.4 2.63.4 5.52 0 10-4.26 10-9.5S17.52 2 12 2z"/>
</svg>
